<svg xmlns="http://www.w3.org/2000/svg" viewBox="0 0 1200 630" role="img" aria-labelledby="title desc">
  <title id="title">Elixis social preview</title>
  <desc id="desc">Elixis turns raw references into identity, brand voice, design system, naming, and SOUL.md outputs.</desc>
  <rect width="1200" height="630" fill="#0d0c11"/>
  <path d="M0 80 C180 20 310 170 500 90 C705 5 900 105 1200 34 L1200 0 L0 0 Z" fill="#17161f"/>
  <path d="M0 630 L0 480 C185 545 345 430 520 500 C738 588 913 450 1200 520 L1200 630 Z" fill="#111019"/>
  <circle cx="990" cy="126" r="122" fill="none" stroke="#c9956b" stroke-width="2" opacity="0.35"/>
  <circle cx="232" cy="468" r="86" fill="none" stroke="#4ecdc4" stroke-width="2" opacity="0.22"/>
  <g transform="translate(94 96)">
    <text x="0" y="0" fill="#e8e6e3" font-family="ui-monospace, SFMono-Regular, Menlo, monospace" font-size="34" font-weight="700" letter-spacing="7">ELIXIS</text>
    <rect x="0" y="38" width="116" height="3" fill="#c9956b"/>
  </g>
  <g transform="translate(94 228)">
    <text x="0" y="0" fill="#e8e6e3" font-family="system-ui, -apple-system, Segoe UI, sans-serif" font-size="66" font-weight="700">AI pattern synthesis</text>
    <text x="0" y="84" fill="#9ca3af" font-family="system-ui, -apple-system, Segoe UI, sans-serif" font-size="42">identity | brand voice | design systems | naming</text>
  </g>
  <g transform="translate(94 432)" fill="none" stroke-linecap="round" stroke-linejoin="round">
    <circle cx="0" cy="0" r="12" fill="#c9956b" stroke="#c9956b"/>
    <circle cx="150" cy="-46" r="12" fill="#4ecdc4" stroke="#4ecdc4"/>
    <circle cx="306" cy="16" r="12" fill="#a855f7" stroke="#a855f7"/>
    <circle cx="470" cy="-30" r="12" fill="#fbbf24" stroke="#fbbf24"/>
    <path d="M14 -4 C62 -42 92 -56 136 -48"/>
    <path d="M164 -42 C215 -18 250 6 292 14"/>
    <path d="M320 12 C370 -18 410 -35 456 -31"/>
  </g>
  <text x="94" y="558" fill="#6b7280" font-family="ui-monospace, SFMono-Regular, Menlo, monospace" font-size="24">Local-first | Pattern graphs | Lens outputs | SOUL.md-compatible</text>
</svg>
